<svg width="512" height="512" viewBox="0 0 512 512" fill="none" xmlns="http://www.w3.org/2000/svg">
<path d="M501.609 384.603L320.543 51.265C306.877 28.259 282.741 14.519 255.981 14.519C229.221 14.519 205.085 28.259 191.419 51.265C191.316 51.441 191.229 51.617 191.126 51.793L10.6624 384.076C-3.2966 407.567 -3.5606 435.778 9.9434 459.533C23.4784 483.302 47.8624 497.481 75.2094 497.481H435.753C463.1 497.481 488.486 483.302 502.02 459.533C515.524 435.779 515.261 407.566 501.609 384.603ZM225.951 167.148C225.951 150.562 239.396 137.118 255.981 137.118C272.567 137.118 286.011 150.563 286.011 167.148V287.269C286.011 303.853 272.566 317.299 255.981 317.299C239.396 317.299 225.951 303.852 225.951 287.269V167.148V167.148ZM255.981 437.421C231.142 437.421 210.935 417.215 210.935 392.375C210.935 367.536 231.141 347.33 255.981 347.33C280.82 347.33 301.026 367.536 301.026 392.375C301.027 417.214 280.821 437.421 255.981 437.421Z" fill="#FF0008"/>
</svg>
